<svg xmlns="http://www.w3.org/2000/svg" xmlns:xlink="http://www.w3.org/1999/xlink" version="1.1" width="256" height="256" viewBox="0 0 256 256" xml:space="preserve">
<desc>Created with Fabric.js 1.7.22</desc>
<defs>
</defs>
<g transform="translate(128 128) scale(0.72 0.72)" style="">
	<g style="stroke: none; stroke-width: 0; stroke-dasharray: none; stroke-linecap: butt; stroke-linejoin: miter; stroke-miterlimit: 10; fill: none; fill-rule: nonzero; opacity: 1;" transform="translate(-175.05 -175.05000000000004) scale(3.89 3.89)" >
	<path d="M 77.459 90 H 12.541 C 5.626 90 0 84.374 0 77.459 V 12.541 C 0 5.626 5.626 0 12.541 0 h 64.918 C 84.374 0 90 5.626 90 12.541 v 64.918 C 90 84.374 84.374 90 77.459 90 z M 12.541 4 C 7.832 4 4 7.832 4 12.541 v 64.918 C 4 82.169 7.832 86 12.541 86 h 64.918 C 82.169 86 86 82.169 86 77.459 V 12.541 C 86 7.832 82.169 4 77.459 4 H 12.541 z" style="stroke: none; stroke-width: 1; stroke-dasharray: none; stroke-linecap: butt; stroke-linejoin: miter; stroke-miterlimit: 10; fill: rgb(221,145,71); fill-rule: nonzero; opacity: 1;" transform=" matrix(1 0 0 1 0 0) " stroke-linecap="round" />
	<path d="M 70.684 26.477 H 19.317 c -1.104 0 -2 -0.896 -2 -2 s 0.896 -2 2 -2 h 51.367 c 1.104 0 2 0.896 2 2 S 71.788 26.477 70.684 26.477 z" style="stroke: none; stroke-width: 1; stroke-dasharray: none; stroke-linecap: butt; stroke-linejoin: miter; stroke-miterlimit: 10; fill: rgb(221,145,71); fill-rule: nonzero; opacity: 1;" transform=" matrix(1 0 0 1 0 0) " stroke-linecap="round" />
	<path d="M 70.684 47 H 19.317 c -1.104 0 -2 -0.896 -2 -2 s 0.896 -2 2 -2 h 51.367 c 1.104 0 2 0.896 2 2 S 71.788 47 70.684 47 z" style="stroke: none; stroke-width: 1; stroke-dasharray: none; stroke-linecap: butt; stroke-linejoin: miter; stroke-miterlimit: 10; fill: rgb(221,145,71); fill-rule: nonzero; opacity: 1;" transform=" matrix(1 0 0 1 0 0) " stroke-linecap="round" />
	<path d="M 70.684 67.522 H 19.317 c -1.104 0 -2 -0.896 -2 -2 s 0.896 -2 2 -2 h 51.367 c 1.104 0 2 0.896 2 2 S 71.788 67.522 70.684 67.522 z" style="stroke: none; stroke-width: 1; stroke-dasharray: none; stroke-linecap: butt; stroke-linejoin: miter; stroke-miterlimit: 10; fill: rgb(221,145,71); fill-rule: nonzero; opacity: 1;" transform=" matrix(1 0 0 1 0 0) " stroke-linecap="round" />
</g>
</g>
</svg>